<?xml version="1.0" encoding="utf-8"?>
<!-- Generator: Adobe Illustrator 26.3.0, SVG Export Plug-In . SVG Version: 6.00 Build 0)  -->
<svg version="1.1" id="Layer_1" xmlns="http://www.w3.org/2000/svg" xmlns:xlink="http://www.w3.org/1999/xlink" x="0px" y="0px"
	 viewBox="0 0 954.7 371.3" style="enable-background:new 0 0 954.7 371.3;" xml:space="preserve">
<style type="text/css">
	.st0{fill:#F4F4F4;}
</style>
<g id="Layer_2_00000110448702214651560440000010360232999876298646_">
	<g id="Layer_1-2">
		<path class="st0" d="M0,293h60.1v71.6H0V293z"/>
		<path class="st0" d="M93.8,6.7h74.9v357.8H93.8V6.7z"/>
		<path class="st0" d="M209.3,6.7h68.2l60.8,248.4h3.4c-8.1-62.1-16.2-131.6-16.9-189.7l-0.7-58.7h72.2v357.8h-68.2l-60.8-241.7H264
			c7.4,50,14.9,124.9,16.2,180.9l1.4,60.8h-72.3V6.7z"/>
		<path class="st0" d="M426.7,79.7c0-50.7,29-79.7,94.5-79.7c56.7,0,86.4,29.7,86.4,87.1v47.3l-66.2,8.8V73.6
			c0-10.8-8.1-17.6-19.6-17.6c-12.2,0-20.9,6.8-20.9,18.9V108c0,16.9,5.4,27,20.2,38.5l41.2,31.1c33.1,25,45.2,45.9,45.2,77.6v35.1
			c0,54-34.4,81-90.5,81c-57.4,0-89.1-27.7-89.1-81v-58.7l64.8-9.4v75.6c0,11.5,8.1,18.2,20.9,18.2c13.5,0,19.6-7.4,19.6-20.9v-31.7
			c0-21.6-6.8-31.7-30.4-48.6l-33.8-24.3c-27-19.6-42.5-49.3-42.5-80.3L426.7,79.7z"/>
		<path class="st0" d="M760.9,6.7l54.7,357.8h-77l-6.8-70.2H692l-4.7,70.2h-66.2L682.6,6.7H760.9z M695.4,247.1h31.7L710.9,79h-3.4
			L695.4,247.1z"/>
		<path class="st0" d="M844.6,61.4h-35.1V6.7h145.2v54.7h-35.1v303.1h-74.9V61.4z"/>
	</g>
</g>
</svg>
